<svg xmlns="http://www.w3.org/2000/svg" viewBox="0 0 192 192">
  <rect width="192" height="192" fill="#0f172a" rx="32"/>
  <path fill="#818cf8" d="M141.7 57.3c-2.3-2.3-6.1-2.3-8.5 0L76.5 114l-25.5-25.5c-2.3-2.3-6.1-2.3-8.5 0s-2.3 6.1 0 8.5l29.8 29.8c1.2 1.2 2.7 1.8 4.2 1.8s3-.6 4.2-1.8l61-61c2.4-2.4 2.4-6.2 0-8.5z"/>
  <path fill="#4ade80" d="M141.7 87.3c-2.3-2.3-6.1-2.3-8.5 0L76.5 144l-25.5-25.5c-2.3-2.3-6.1-2.3-8.5 0s-2.3 6.1 0 8.5l29.8 29.8c1.2 1.2 2.7 1.8 4.2 1.8s3-.6 4.2-1.8l61-61c2.4-2.4 2.4-6.2 0-8.5z"/>
</svg>
